
        <svg xmlns="http://www.w3.org/2000/svg" xmlns:xlink="http://www.w3.org/1999/xlink" version="1.1" width="3162.6016260162605" 
        height="1430.8943089430895" viewBox="0 0 3162.6016260162605 1430.8943089430895">
			
			<g transform="scale(8.130081300813009) translate(10, 10)">
				<defs id="SvgjsDefs4354"></defs><g id="SvgjsG4355" featureKey="rootContainer" transform="matrix(1,0,0,1,0,0)" fill="#111111"><rect y="0" height="1" width="1" opacity="0"></rect><rect y="151" width="369" height="5"></rect></g><g id="SvgjsG4356" featureKey="symbolFeature-0" transform="matrix(2.0833333333333335,0,0,2.0833333333333335,-4.166666666666667,13.833333333333332)" fill="#111111"><title xmlns="http://www.w3.org/2000/svg">Research, data, analysis, information</title><g xmlns="http://www.w3.org/2000/svg"><rect x="31" y="41" width="2" height="2"></rect><rect x="29" y="45" width="6" height="15"></rect><rect x="2" y="54" width="2" height="2"></rect><rect x="6" y="54" width="8" height="2"></rect><rect x="2" y="58" width="12" height="2"></rect><rect x="4" y="2" width="2" height="2"></rect><rect x="8" y="2" width="8" height="2"></rect><rect x="4" y="6" width="12" height="2"></rect><rect x="52" y="3" width="2" height="2"></rect><rect x="56" y="3" width="6" height="2"></rect><rect x="52" y="7" width="10" height="2"></rect><rect x="50" y="48" width="2" height="2"></rect><rect x="54" y="48" width="8" height="2"></rect><rect x="50" y="52" width="12" height="2"></rect><path d="M55,30.813v7.329a4,4,0,1,0,2,0V30a1,1,0,0,0-.8-.979L46.841,27.07A14.727,14.727,0,0,0,42.87,14.683L46.447,12.9A1,1,0,0,0,47,12V10h2a1,1,0,0,0,1-1V3a1,1,0,0,0-1-1H43a1,1,0,0,0-1,1V9a1,1,0,0,0,1,1h2v1.382l-3.71,1.855A14.987,14.987,0,0,0,17.3,21.987l-6.3-.86V17.858a4,4,0,1,0-2,0V22a1,1,0,0,0,.865.991l7.187.98C17.029,24.312,17,24.653,17,25a14.928,14.928,0,0,0,3.268,9.331L7.649,39.063A1,1,0,0,0,7,40v4H5a1,1,0,0,0-1,1v6a1,1,0,0,0,1,1h6a1,1,0,0,0,1-1V45a1,1,0,0,0-1-1H9V40.693l12.735-4.776a14.971,14.971,0,0,0,24.7-6.888ZM58,42a2,2,0,1,1-2-2A2,2,0,0,1,58,42ZM44,4h4V8H44ZM8,14a2,2,0,1,1,2,2A2,2,0,0,1,8,14Zm2,36H6V46h4ZM43,25a11.037,11.037,0,0,1-.077,1.254l-6.942-1.446A3.99,3.99,0,0,0,33,21.142V19.618l6.074-3.037A10.976,10.976,0,0,1,43,25ZM32,27a2,2,0,1,1,2-2A2,2,0,0,1,32,27Zm0-13a10.942,10.942,0,0,1,5.175,1.3l-5.622,2.81A1,1,0,0,0,31,19v2.142a4,4,0,0,0-2.7,2.344l-7.013-.956A11,11,0,0,1,32,14ZM21,25c0-.165.017-.325.025-.487l7.023.957A3.985,3.985,0,0,0,31,28.858v1.449l-6.723,2.521A10.96,10.96,0,0,1,21,25ZM32,36a10.938,10.938,0,0,1-5.893-1.722l6.244-2.341A1,1,0,0,0,33,31V28.858a3.994,3.994,0,0,0,2.571-2.093l6.949,1.448A11,11,0,0,1,32,36Z"></path></g></g><g id="SvgjsG4357" featureKey="nameFeature-0" transform="matrix(0.5091296010750753,0,0,0.5091296010750753,146.14466235759176,44.94311643107845)" fill="#111111"><path d="M15.04 40 l-7.4 -16.36 l0 16.36 l-5.96 0 l0 -27.4 l7.44 0 l8.04 18.12 l8.04 -18.12 l7.44 0 l0 27.4 l-6.08 0 l0 -16.44 l-7.44 16.44 l-4.08 0 z M58.97 9.079999999999998 l-9.36 2.16 l0 -4.92 l9.36 -2.28 l0 5.04 z M54.13 40.56 c-8 0 -14.52 -6.12 -14.52 -14.24 c0 -8.16 6.52 -14.28 14.52 -14.28 c8.2 0 14.52 6.12 14.52 14.24 c0 8.16 -6.32 14.28 -14.52 14.28 z M54.13 34.8 c4.64 0 8.2 -3.68 8.2 -8.52 c0 -4.76 -3.56 -8.48 -8.2 -8.48 s-8.2 3.72 -8.2 8.52 s3.56 8.48 8.2 8.48 z M92.62 40 l-11.04 -17.36 l0 17.36 l-5.96 0 l0 -27.4 l6.76 0 l11.04 17.4 l0 -17.4 l5.96 0 l0 27.4 l-6.76 0 z M113.19 40 l-6.2 0 l0 -27.4 l6.2 0 l0 27.4 z M134.6 17.8 c-4.64 0 -8.16 3.72 -8.16 8.44 c0 4.84 3.52 8.52 8.36 8.52 c3.36 0 5.92 -1.76 7.48 -4.44 l4.84 3.36 c-2.64 4.32 -6.68 6.88 -12.24 6.88 c-8.44 0 -14.76 -6.28 -14.76 -14.32 c0 -7.96 6.28 -14.2 14.6 -14.2 c5.4 0 9.68 2.24 12.28 6.84 l-4.92 3.4 c-1.6 -2.64 -4 -4.48 -7.48 -4.48 z M169.17000000000002 29.8 l-3.56 -10.72 l-3.56 10.72 l7.12 0 z M172.57 40 l-1.56 -4.72 l-10.76 0 l-1.56 4.72 l-6.36 0 l9.68 -27.4 l7.6 0 l9.64 27.4 l-6.68 0 z M212.95 29.8 l-3.56 -10.72 l-3.56 10.72 l7.12 0 z M216.35 40 l-1.56 -4.72 l-10.76 0 l-1.56 4.72 l-6.36 0 l9.68 -27.4 l7.6 0 l9.64 27.4 l-6.68 0 z M246.20000000000002 40 l-11.04 -17.36 l0 17.36 l-5.96 0 l0 -27.4 l6.76 0 l11.04 17.4 l0 -17.4 l5.96 0 l0 27.4 l-6.76 0 z M288.57 26.240000000000002 c0 8.2 -5.68 14.32 -13.88 14.32 c-8.68 0 -14.76 -6.36 -14.76 -14.28 c0 -7.8 5.88 -14.24 14.76 -14.24 c5.12 0 9.08 2.08 11.56 5.64 l-4.56 3.88 c-1.84 -2.32 -4.12 -3.72 -7 -3.72 c-4.76 0 -8.44 3.52 -8.44 8.6 c0 4.8 3.44 8.36 8.28 8.36 c3.68 0 6.08 -1.84 7.12 -4.76 l-7.28 0 l0 -5.4 l14.2 0 l0 1.6 z M307.17999999999995 40.48 c-7.68 0 -11.88 -4.56 -11.88 -11.36 l0 -16.52 l6.2 0 l0 15.68 c0 4.16 2.04 6.44 5.64 6.44 c3.56 0 5.56 -2.28 5.56 -6.44 l0 -15.68 l6.2 0 l0 16.52 c0 6.8 -4.16 11.36 -11.72 11.36 z M326.34999999999997 40 l0 -27.4 l6.2 0 l0 21.72 l12.72 0 l0 5.68 l-18.92 0 z M366.23999999999995 40.56 c-8 0 -14.52 -6.12 -14.52 -14.24 c0 -8.16 6.52 -14.28 14.52 -14.28 c8.2 0 14.52 6.12 14.52 14.24 c0 8.16 -6.32 14.28 -14.52 14.28 z M366.23999999999995 34.8 c4.64 0 8.2 -3.68 8.2 -8.52 c0 -4.76 -3.56 -8.48 -8.2 -8.48 s-8.2 3.72 -8.2 8.52 s3.56 8.48 8.2 8.48 z M399.85999999999996 40 l0 -27.4 l11.28 0 c6.12 0 8.84 3.4 8.84 7.44 c0 2.44 -1.16 4.4 -3.44 5.56 c3.44 1.04 5.28 3.36 5.28 6.56 c0 4.48 -3.16 7.84 -9.64 7.84 l-12.32 0 z M410.69999999999993 17.92 l-4.64 0 l0 5.6 l4.64 0 c2.12 0 3.2 -1.2 3.2 -2.84 c0 -1.6 -1.08 -2.76 -3.2 -2.76 z M411.81999999999994 28.759999999999998 l-5.76 0 l0 5.92 l5.8 0 c2.4 0 3.76 -1.2 3.76 -2.88 c0 -1.8 -1.36 -3.04 -3.8 -3.04 z M433.78999999999996 40 l-5.76 0 l0 -5.8 l5.76 0 l0 5.8 z"></path></g><g id="SvgjsG4358" featureKey="sloganFeature-0" transform="matrix(2.0756115993380124,0,0,2.0756115993380124,139.68643442446213,70.88955009052484)" fill="#111111"><path d="M3.88 15.9 l0 2.86 c0 0.44 -0.34 0.64 -0.66 0.64 c-0.34 0 -0.66 -0.2 -0.66 -0.64 l0 -10.74 c0 -0.4 0.22 -0.66 0.66 -0.66 l2.7 0 c0.76 0 3.16 0.22 3.16 2.92 l0 2.5 c0 1.52 -0.56 2.48 -1.84 2.9 l1.36 2.74 c0.28 0.54 -0.14 0.98 -0.58 0.98 c-0.24 0 -0.54 -0.16 -0.7 -0.5 l-1.46 -3 l-1.98 0 z M7.76 12.780000000000001 l0 -2.5 c0 -0.48 -0.18 -1.58 -1.84 -1.58 l-2.04 0 l0 5.86 l1.86 0 c0.98 0 2.02 -0.22 2.02 -1.78 z M13.9 18.7 l0 -10.64 c0 -0.46 0.36 -0.7 0.7 -0.7 l4.6 0 c0.44 0 0.66 0.32 0.66 0.66 s-0.22 0.68 -0.66 0.68 l-3.96 0 l0 3.88 l3.14 0 c0.46 0 0.68 0.32 0.68 0.66 s-0.24 0.7 -0.68 0.7 l-3.14 0 l0 4.14 l3.96 0 c0.42 0 0.64 0.34 0.64 0.66 c0 0.34 -0.22 0.66 -0.64 0.66 l-4.6 0 c-0.34 0 -0.7 -0.12 -0.7 -0.7 z M24.18 17.68 c-0.44 -0.82 0.68 -1.42 1.2 -0.6 c0.26 0.42 1.04 1.14 2.28 1.14 c0.52 0 1.82 -0.38 2 -1.86 c0.12 -0.9 -0.74 -1.78 -2.22 -2.52 c-2.08 -0.98 -3.66 -1.84 -3.66 -3.56 c0 -2.04 1.72 -3 3.56 -3 c1.66 0 2.58 1.02 2.9 1.54 c0.46 0.74 -0.54 1.46 -1.1 0.74 c-0.28 -0.36 -0.82 -0.96 -1.8 -0.96 c-1.1 0 -2.24 0.52 -2.24 1.68 c0 0.92 1.02 1.44 2.54 2.16 c1.78 0.88 3.64 1.74 3.36 4.08 c-0.22 1.84 -1.62 3.02 -3.34 3.02 c-1.3 0 -2.9 -0.7 -3.48 -1.86 z M35.42 18.7 l0 -10.64 c0 -0.46 0.36 -0.7 0.7 -0.7 l4.6 0 c0.44 0 0.66 0.32 0.66 0.66 s-0.22 0.68 -0.66 0.68 l-3.96 0 l0 3.88 l3.14 0 c0.46 0 0.68 0.32 0.68 0.66 s-0.24 0.7 -0.68 0.7 l-3.14 0 l0 4.14 l3.96 0 c0.42 0 0.64 0.34 0.64 0.66 c0 0.34 -0.22 0.66 -0.64 0.66 l-4.6 0 c-0.34 0 -0.7 -0.12 -0.7 -0.7 z M51.839999999999996 18.86 l-0.78 -2.54 l-3.72 0 l-0.74 2.5 c-0.26 0.86 -1.58 0.6 -1.3 -0.28 c1.04 -3.5 2.06 -7.06 3.08 -10.6 c0.12 -0.38 0.44 -0.58 0.76 -0.58 c0.3 0 0.62 0.2 0.74 0.58 l3.18 10.6 c0.22 0.76 -0.96 1.18 -1.22 0.32 z M49.18 10.06 l-1.44 4.92 l2.94 0 c-0.5 -1.68 -0.96 -3.12 -1.5 -4.92 z M58.839999999999996 15.9 l0 2.86 c0 0.44 -0.34 0.64 -0.66 0.64 c-0.34 0 -0.66 -0.2 -0.66 -0.64 l0 -10.74 c0 -0.4 0.22 -0.66 0.66 -0.66 l2.7 0 c0.76 0 3.16 0.22 3.16 2.92 l0 2.5 c0 1.52 -0.56 2.48 -1.84 2.9 l1.36 2.74 c0.28 0.54 -0.14 0.98 -0.58 0.98 c-0.24 0 -0.54 -0.16 -0.7 -0.5 l-1.46 -3 l-1.98 0 z M62.71999999999999 12.780000000000001 l0 -2.5 c0 -0.48 -0.18 -1.58 -1.84 -1.58 l-2.04 0 l0 5.86 l1.86 0 c0.98 0 2.02 -0.22 2.02 -1.78 z M72.53999999999999 7.32 c1.82 0 3.76 0.7 3.76 2.76 c0 0.48 -0.32 0.7 -0.66 0.7 s-0.7 -0.24 -0.7 -0.7 c0 -0.16 -0.1 -1.46 -2.4 -1.46 c-1.82 0 -2.62 0.72 -2.62 2.44 l0 4.82 c0 1.74 0.98 2.28 2.62 2.28 c1.66 0 2.58 -0.68 2.58 -2.3 c0 -0.46 0.34 -0.68 0.66 -0.68 c0.34 0 0.66 0.22 0.66 0.68 c0 2.7 -1.5 3.6 -3.9 3.6 c-2.6 0 -3.92 -0.96 -3.92 -3.58 l0 -4.82 c0 -2.84 1.42 -3.74 3.92 -3.74 z M81.14 18.76 l0 -10.76 c0 -0.42 0.32 -0.62 0.66 -0.62 s0.68 0.2 0.68 0.62 l0 4.58 l4.54 0 l0 -4.58 c0 -0.42 0.32 -0.64 0.64 -0.64 s0.66 0.22 0.66 0.64 l0 10.76 c0 0.42 -0.34 0.64 -0.66 0.64 s-0.64 -0.22 -0.64 -0.64 l0 -4.82 l-4.54 0 l0 4.82 c0 0.42 -0.34 0.64 -0.68 0.64 s-0.66 -0.22 -0.66 -0.64 z M93.38 18.7 l0 -10.64 c0 -0.46 0.36 -0.7 0.7 -0.7 l4.6 0 c0.44 0 0.66 0.32 0.66 0.66 s-0.22 0.68 -0.66 0.68 l-3.96 0 l0 3.88 l3.14 0 c0.46 0 0.68 0.32 0.68 0.66 s-0.24 0.7 -0.68 0.7 l-3.14 0 l0 4.14 l3.96 0 c0.42 0 0.64 0.34 0.64 0.66 c0 0.34 -0.22 0.66 -0.64 0.66 l-4.6 0 c-0.34 0 -0.7 -0.12 -0.7 -0.7 z M105.27999999999999 15.9 l0 2.86 c0 0.44 -0.34 0.64 -0.66 0.64 c-0.34 0 -0.66 -0.2 -0.66 -0.64 l0 -10.74 c0 -0.4 0.22 -0.66 0.66 -0.66 l2.7 0 c0.76 0 3.16 0.22 3.16 2.92 l0 2.5 c0 1.52 -0.56 2.48 -1.84 2.9 l1.36 2.74 c0.28 0.54 -0.14 0.98 -0.58 0.98 c-0.24 0 -0.54 -0.16 -0.7 -0.5 l-1.46 -3 l-1.98 0 z M109.16 12.780000000000001 l0 -2.5 c0 -0.48 -0.18 -1.58 -1.84 -1.58 l-2.04 0 l0 5.86 l1.86 0 c0.98 0 2.02 -0.22 2.02 -1.78 z"></path></g>
			</g>
		</svg>
	