<?xml version="1.0" encoding="iso-8859-1"?>
<!-- Uploaded to: SVG Repo, www.svgrepo.com, Generator: SVG Repo Mixer Tools -->
<!DOCTYPE svg PUBLIC "-//W3C//DTD SVG 1.1//EN" "http://www.w3.org/Graphics/SVG/1.1/DTD/svg11.dtd">
<svg fill="#000000" height="800px" width="800px" version="1.1" id="Capa_1" xmlns="http://www.w3.org/2000/svg" xmlns:xlink="http://www.w3.org/1999/xlink" 
	 viewBox="0 0 210.941 210.941" xml:space="preserve">
<path d="M192.047,45.545h-9.889v-2.137c0-4.143-3.358-7.5-7.5-7.5h-19.414c-4.142,0-7.5,3.357-7.5,7.5v2.137h-8.751v-6.622
	c0-12.538-10.2-22.738-22.738-22.738H94.687c-12.538,0-22.739,10.2-22.739,22.738v6.622h-8.751v-2.137c0-4.143-3.358-7.5-7.5-7.5
	H36.283c-4.142,0-7.5,3.357-7.5,7.5v2.137h-9.889C8.476,45.545,0,54.021,0,64.44v111.423c0,10.418,8.476,18.894,18.894,18.894
	h173.153c10.418,0,18.894-8.476,18.894-18.894V64.44C210.941,54.021,202.465,45.545,192.047,45.545z M35.599,92.176
	c0-5.743,4.672-10.415,10.415-10.415c5.742,0,10.414,4.672,10.414,10.415c0,5.742-4.672,10.414-10.414,10.414
	C40.271,102.59,35.599,97.918,35.599,92.176z M93.328,91.597c1.379-3.379,3.842-5.471,7.529-6.396
	c1.566-0.394,3.093-0.593,4.54-0.593c5.239,0,8.238,2.618,8.7,3.054c1.844,2.17,4.623,3.14,7.394,2.449
	c2.771-0.696,4.762-2.869,5.361-5.658c0.31-0.952,2.407-6.386,10.505-8.42c1.056-0.266,2.083-0.399,3.053-0.399
	c6.78,0,10.971,6.888,12.134,11.519c1.038,4.134,1.105,10.005-7.663,18.788c-5.013,5.021-9.415,10.587-13.083,16.545
	c-0.841,1.365-2.675,1.849-4.093,1.027c-6.05-3.519-12.56-6.344-19.348-8.399c-11.878-3.598-14.593-8.804-15.631-12.938
	C91.84,98.646,92.065,94.692,93.328,91.597z M149.463,145.83c0-1.832,1.491-3.323,3.323-3.323h13.072
	c1.832,0,3.322,1.491,3.322,3.323v13.071c0,1.832-1.49,3.323-3.322,3.323h-13.072c-1.832,0-3.323-1.491-3.323-3.323V145.83z
	 M86.948,38.923c0-4.267,3.472-7.738,7.739-7.738h21.568c4.267,0,7.738,3.472,7.738,7.738v6.622H86.948V38.923z"/>
</svg>